<svg xmlns="http://www.w3.org/2000/svg" width="48" height="48" viewBox="0 0 48 48"><path opacity=".4" fill="#50B848" d="M36.443 47c1.133 0 2.057-.938 2.057-2.09v-41.819c0-1.153-.924-2.091-2.057-2.091h-32.888c-1.133 0-2.055.938-2.055 2.091v41.819c0 1.153.922 2.09 2.055 2.09h32.888"/><path fill="#50B848" d="M36 46c1.104 0 2.001-.896 2.001-2v-40c0-1.103-.897-2-2.001-2h-32c-1.103 0-2 .898-2 2v40c0 1.104.897 2 2 2h32m0 2.002h-32c-2.21 0-4-1.791-4-4.002v-40c0-2.21 1.791-4 4-4h32c2.209 0 3.999 1.791 3.999 4v40c0 2.211-1.79 4.002-3.999 4.002zM33.938 6.938c0 1.104-.896 2-2 2h-25c-1.104 0-2-.896-2-2s.896-2 2-2h25c1.104 0 2 .895 2 2zm0 8c0 1.104-.896 2-2 2h-25c-1.104 0-2-.896-2-2s.896-2 2-2h25c1.104 0 2 .895 2 2zm-11 9c0 1.104-.896 2-2 2h-14c-1.104 0-2-.896-2-2s.896-2 2-2h14c1.104 0 2 .895 2 2zm-3 9c0 1.104-.896 2-2 2h-11c-1.104 0-2-.896-2-2s.896-2 2-2h11c1.104 0 2 .895 2 2zm14 8c0 1.104-.896 2-2 2h-25c-1.104 0-2-.896-2-2s.896-2 2-2h25c1.104 0 2 .895 2 2zM47.198 10.764c1.056 1.057 1.056 2.771 0 3.83l-20.466 20.513c-.1.1-4.65.975-4.72.903-.042-.04.802-4.635.9-4.731l20.466-20.515c1.056-1.057 2.767-1.057 3.82 0z"/></svg>