<svg xmlns="http://www.w3.org/2000/svg" width="48" height="48" viewBox="0 0 48 48"><path opacity=".4" fill="#50B848" d="M24 46.5c12.407 0 22.5-10.093 22.5-22.5s-10.093-22.5-22.5-22.5-22.5 10.093-22.5 22.5 10.093 22.5 22.5 22.5"/><path fill="#50B848" d="M24 45.987c12.124 0 21.987-9.863 21.987-21.987 0-12.125-9.863-21.987-21.987-21.987-12.125 0-21.988 9.862-21.988 21.987 0 12.124 9.863 21.987 21.988 21.987m0 2.001c-13.248 0-23.988-10.739-23.988-23.988 0-13.247 10.74-23.988 23.988-23.988 13.247 0 23.989 10.741 23.989 23.988-.001 13.249-10.743 23.988-23.989 23.988z"/><path fill-rule="evenodd" clip-rule="evenodd" fill="#50B848" d="M36.392 33.631l-2.227-.004.008 2.27c0 .607-.501 1.098-1.119 1.098-.619 0-1.12-.49-1.12-1.098l.005-2.273-2.261-.002c-.619 0-1.12-.492-1.12-1.1 0-.605.501-1.064 1.12-1.064l2.264-.008.003-2.244c0-.607.501-1.1 1.119-1.1.619 0 1.084.492 1.084 1.1l.008 2.236 2.236-.008c.617 0 1.118.492 1.118 1.1 0 .605-.501 1.097-1.118 1.097zm-7.684-5.291c-1.331-.84-2.889-1.354-4.569-1.406l-.293.014-.29-.014c-4.524.143-8.211 3.57-8.75 7.973h-.03l.001.016c0 .627-.509 1.137-1.139 1.137-.628 0-1.139-.51-1.139-1.137l-.009-.107c0-.146.029-.287.082-.418.571-3.98 3.193-7.299 6.774-8.836-2.104-1.437-3.485-3.85-3.485-6.585 0-4.401 3.575-7.97 7.984-7.97 4.411 0 7.985 3.568 7.985 7.97 0 2.735-1.381 5.147-3.481 6.581.517.225 1.006.496 1.479.789 0 0 .48.287.742.549.44.439.44 1.156 0 1.596-.439.439-1.155.439-1.596 0l-.266-.152zm-4.864-15.055c-3.15 0-5.704 2.549-5.704 5.694s2.554 5.694 5.704 5.694 5.704-2.55 5.704-5.694c0-3.145-2.554-5.694-5.704-5.694z"/></svg>