<svg xmlns="http://www.w3.org/2000/svg" width="48" height="48" viewBox="0 0 48 48"><path opacity=".4" fill="#50B848" d="M24 46.5c12.407 0 22.5-10.093 22.5-22.5s-10.093-22.5-22.5-22.5-22.5 10.093-22.5 22.5 10.093 22.5 22.5 22.5"/><path fill="#50B848" d="M24 45.987c12.124 0 21.987-9.863 21.987-21.987 0-12.125-9.863-21.987-21.987-21.987-12.125 0-21.988 9.862-21.988 21.987 0 12.124 9.863 21.987 21.988 21.987m0 2.001c-13.248 0-23.988-10.739-23.988-23.988 0-13.247 10.74-23.988 23.988-23.988 13.247 0 23.989 10.741 23.989 23.988-.001 13.249-10.743 23.988-23.989 23.988z"/><path fill-rule="evenodd" clip-rule="evenodd" fill="#50B848" d="M22.553 31.064l12.35-11.935c.773-.726.818-1.863.045-2.591-.774-.726-2.029-.726-2.804.002l-11.331 10.923-5.118-4.956c-.732-.684-1.919-.684-2.652 0-.732.685-.732 1.795 0 2.479l6.085 6.063s.732.856 1.659.856c1.041.001 1.766-.841 1.766-.841z"/></svg>